<svg xmlns="http://www.w3.org/2000/svg" viewBox="0 0 170 130" fill="none">
  <ellipse cx="57" cy="93" rx="39" ry="17" fill="#DCEBE5"/>
  <path d="M24 81h66l-6 16c-3 8-10 12-27 12S33 105 30 97l-6-16Z" fill="#5E9B91"/>
  <ellipse cx="57" cy="81" rx="33" ry="11" fill="#FFFDF9" stroke="#0F5A54" stroke-width="2.5"/>
  <g fill="#A76F46"><circle cx="42" cy="79" r="5"/><circle cx="54" cy="75" r="5"/><circle cx="66" cy="80" r="5"/><circle cx="76" cy="76" r="4"/><circle cx="50" cy="85" r="4"/><circle cx="68" cy="86" r="4"/></g>
  <path d="M96 32h37l9 63H87l9-63Z" fill="#E7B47C" stroke="#C88C55" stroke-width="2"/>
  <path d="M101 27h27l5 8H96l5-8Z" fill="#F4CF9F"/>
  <path d="M112 56c7-8 15-8 22 0-1 10-5 16-11 20-6-4-10-10-11-20Z" fill="#FFF3E7"/>
  <circle cx="120" cy="58" r="3.2" fill="#0F5A54"/><circle cx="127" cy="58" r="3.2" fill="#0F5A54"/><circle cx="116" cy="65" r="3.2" fill="#0F5A54"/><circle cx="131" cy="65" r="3.2" fill="#0F5A54"/>
  <path d="M123.5 64c-5 0-8 4-8 8 0 4 3 6 8 6s8-2 8-6c0-4-3-8-8-8Z" fill="#0F5A54"/>
  <path d="M117 101c6-13 16-20 29-22-1 12-7 20-18 25" fill="#BFD8C9"/>
  <path d="M118 104c7-8 15-14 24-19" stroke="#0F5A54" stroke-width="2.5" stroke-linecap="round"/>
  <circle cx="91" cy="25" r="7" fill="#E88965"/><path d="M91 21v8M87 25h8" stroke="#FFFDF9" stroke-width="2" stroke-linecap="round"/>
</svg>
